<svg version="1.1" xmlns="http://www.w3.org/2000/svg" xmlns:xlink="http://www.w3.org/1999/xlink" width="59.27528" height="59.27528" viewBox="0,0,59.27528,59.27528"><g transform="translate(-210.36236,-150.36236)"><g data-paper-data="{&quot;isPaintingLayer&quot;:true}" stroke-linecap="butt" stroke-linejoin="miter" stroke-miterlimit="10" stroke-dasharray="" stroke-dashoffset="0" style="mix-blend-mode: normal"><path d="M210.36236,180c0,-16.36842 13.26922,-29.63764 29.63764,-29.63764c16.36842,0 29.63764,13.26922 29.63764,29.63764c0,16.36842 -13.26922,29.63764 -29.63764,29.63764c-16.36842,0 -29.63764,-13.26922 -29.63764,-29.63764z" fill="#ffffff" fill-rule="nonzero" stroke="none" stroke-width="0"/><path d="M238.8829,194.52324v-26.34782l-7.02877,7.031c-0.43681,0.43681 -1.145,0.43681 -1.58181,0c-0.43681,-0.43681 -0.43681,-1.145 0,-1.58181l8.93676,-8.93676c0.20958,-0.2101 0.49415,-0.32819 0.7909,-0.32819c0.29676,0 0.58133,0.11809 0.7909,0.32819l8.93676,8.93676c0.43681,0.43681 0.43681,1.145 0,1.58181c-0.43681,0.43681 -1.145,0.43681 -1.58181,0l-7.02877,-7.031v26.34782c0,0.61695 -0.50015,1.1171 -1.1171,1.1171c-0.61695,0 -1.1171,-0.50015 -1.1171,-1.1171z" fill="#000000" fill-rule="evenodd" stroke="#000000" stroke-width="2"/></g></g></svg>